<svg width="29.671051" height="29.670593" viewBox="0 0 29.6711 29.6706" fill="none" xmlns="http://www.w3.org/2000/svg" xmlns:xlink="http://www.w3.org/1999/xlink">
	<desc>
			Created with Pixso.
	</desc>
	<defs/>
	<path id="Vector" d="M29.1 3.27C29.28 3.09 29.42 2.88 29.52 2.65C29.62 2.42 29.67 2.17 29.67 1.91C29.67 1.66 29.62 1.41 29.52 1.18C29.42 0.95 29.28 0.74 29.11 0.56C28.93 0.38 28.72 0.24 28.48 0.14C28.25 0.05 28 0 27.75 0C27.5 0 27.25 0.05 27.02 0.14C26.78 0.24 26.57 0.38 26.39 0.56L14.83 12.12L3.27 0.56C2.91 0.2 2.42 0 1.91 0C1.4 0 0.92 0.2 0.56 0.56C0.2 0.92 0 1.4 0 1.91C0 2.42 0.2 2.91 0.56 3.27L12.12 14.83L0.56 26.39C0.38 26.57 0.24 26.78 0.14 27.01C0.04 27.25 0 27.5 0 27.75C0 28 0.04 28.25 0.14 28.48C0.24 28.71 0.38 28.93 0.56 29.1C0.92 29.46 1.4 29.67 1.91 29.67C2.17 29.67 2.42 29.62 2.65 29.52C2.88 29.42 3.09 29.28 3.27 29.1L14.83 17.54L26.39 29.1C26.75 29.46 27.24 29.66 27.75 29.66C28.26 29.66 28.75 29.46 29.11 29.1C29.46 28.74 29.67 28.25 29.67 27.75C29.67 27.24 29.46 26.75 29.1 26.39L17.54 14.83L29.1 3.27Z" fill="#000000" fill-opacity="1.000000" fill-rule="evenodd"/>
</svg>
